<?xml version="1.0" standalone="no"?>
<!DOCTYPE svg PUBLIC "-//W3C//DTD SVG 20010904//EN"
 "http://www.w3.org/TR/2001/REC-SVG-20010904/DTD/svg10.dtd">
<svg version="1.0" xmlns="http://www.w3.org/2000/svg"
 width="242.000000pt" height="189.000000pt" viewBox="0 0 242.000000 189.000000"
 preserveAspectRatio="xMidYMid meet">

<g transform="translate(0.000000,189.000000) scale(0.100000,-0.100000)"
fill="#000080" stroke="none">
<path d="M1167 1610 c-43 -13 -57 -29 -57 -65 0 -46 34 -83 121 -130 78 -43
121 -91 141 -157 6 -21 16 -38 22 -38 6 0 31 14 55 30 68 46 139 36 186 -26
22 -29 19 -110 -5 -144 -40 -57 -128 -65 -192 -17 -45 33 -78 40 -85 19 -4 -9
-39 -64 -78 -122 -40 -58 -77 -115 -84 -127 -15 -30 -30 -110 -24 -133 6 -22
28 -16 88 24 56 38 110 36 161 -8 36 -31 39 -38 39 -84 0 -66 -26 -102 -90
-123 l-48 -16 59 -24 c49 -19 78 -23 169 -24 96 0 116 3 157 23 75 37 88 60
88 157 0 82 13 143 34 157 6 4 24 8 39 8 41 0 67 17 67 44 0 13 -18 54 -40 92
-22 38 -70 146 -108 239 -37 94 -85 197 -107 229 -61 93 -165 165 -285 199
-70 20 -187 29 -223 17z"/>
<path d="M524 1271 c-12 -5 -31 -22 -43 -37 -50 -63 -5 -155 78 -158 36 -1 47
4 72 32 20 22 29 43 29 67 0 65 -78 120 -136 96z"/>
<path d="M1588 1133 c-9 -10 -19 -29 -22 -43 -7 -24 -6 -24 18 5 14 17 26 36
26 43 0 16 -4 15 -22 -5z"/>
<path d="M1524 1079 c-4 -7 -3 -9 4 -5 5 3 13 0 15 -6 4 -9 6 -10 6 -1 1 17
-16 25 -25 12z"/>
<path d="M1129 961 c-36 -37 -40 -96 -9 -132 20 -23 21 -23 33 -5 7 11 31 48
54 84 24 35 40 68 37 73 -3 5 -23 9 -45 9 -31 0 -47 -7 -70 -29z"/>
<path d="M534 846 c1 -9 7 -21 13 -27 9 -9 11 -7 9 5 -1 9 -7 21 -13 27 -9 9
-11 7 -9 -5z"/>
<path d="M664 720 c-64 -26 -83 -109 -36 -161 24 -26 36 -32 72 -32 36 0 48 6
72 32 49 55 32 137 -34 160 -36 13 -45 13 -74 1z"/>
<path d="M1367 618 c-26 -28 -33 -30 -77 -26 -29 3 -54 0 -60 -6 -8 -8 -10 -7
-5 5 8 20 -25 35 -36 17 -10 -16 84 -78 119 -78 44 0 85 32 88 70 1 8 5 23 9
33 11 25 -6 19 -38 -15z"/>
<path d="M1126 611 c-4 -7 -5 -15 -2 -18 9 -9 19 4 14 18 -4 11 -6 11 -12 0z"/>
<path d="M1073 586 c-1 -12 1 -15 4 -8 3 6 8 10 13 7 4 -3 10 2 13 9 4 10 0
14 -12 13 -10 0 -17 -10 -18 -21z"/>
<path d="M956 574 c1 -16 -2 -21 -12 -17 -8 3 -12 9 -9 13 3 4 -2 10 -10 13
-22 9 -7 -19 20 -37 29 -19 74 -20 95 -3 23 19 22 36 -2 32 -12 -3 -26 -1 -32
4 -6 4 -20 10 -32 13 -17 4 -20 1 -18 -18z"/>
<path d="M206 284 c-10 -26 -7 -174 4 -195 9 -16 22 -19 75 -19 91 0 95 3 95
66 0 51 -2 54 -24 54 -19 0 -25 -6 -28 -27 -2 -23 -8 -29 -35 -31 l-33 -3 0
60 0 61 45 0 c41 0 45 2 45 25 0 24 -2 25 -69 25 -54 0 -70 -4 -75 -16z"/>
<path d="M430 185 l0 -115 30 0 c29 0 30 2 30 45 0 43 1 45 30 45 29 0 30 -2
30 -45 0 -43 1 -45 30 -45 l30 0 0 115 0 115 -30 0 c-28 0 -30 -2 -30 -40 0
-38 -2 -40 -30 -40 -28 0 -30 2 -30 40 0 38 -2 40 -30 40 l-30 0 0 -115z"/>
<path d="M662 188 l3 -113 60 -3 c108 -6 106 -8 103 116 l-3 107 -83 3 -83 3
3 -113z m118 2 l0 -60 -35 0 -35 0 0 60 0 60 35 0 35 0 0 -60z"/>
<path d="M887 293 c-12 -11 -7 -92 6 -100 6 -4 32 -15 56 -23 68 -24 64 -40
-8 -40 l-61 0 0 -30 0 -30 79 0 c92 0 104 8 99 71 -3 42 -4 44 -57 64 -73 28
-78 45 -12 45 48 0 51 2 51 25 0 24 -2 25 -73 25 -41 0 -77 -3 -80 -7z"/>
<path d="M1110 275 c0 -21 5 -25 30 -25 l30 0 0 -91 0 -90 28 3 c27 3 27 4 29
78 1 41 2 80 2 87 1 6 13 13 29 15 19 2 27 9 27 23 0 18 -8 20 -87 23 l-88 3
0 -26z"/>
<path d="M1330 186 l0 -116 30 0 c28 0 29 1 32 58 3 56 3 56 17 30 18 -36 64
-39 83 -5 12 20 13 19 18 -28 5 -46 7 -50 33 -53 l27 -3 0 115 0 116 -30 0
c-26 0 -33 -7 -58 -57 l-29 -56 -29 54 c-25 46 -34 54 -61 57 l-33 3 0 -115z"/>
<path d="M1620 185 l0 -116 73 3 c69 3 72 4 72 28 0 22 -5 25 -42 28 -51 4
-62 32 -13 32 25 0 30 4 30 25 0 15 -6 26 -15 26 -8 1 -21 2 -27 3 -7 0 -14 9
-16 19 -3 14 4 17 42 17 42 0 46 2 46 25 0 24 -2 25 -75 25 l-75 0 0 -115z"/>
<path d="M1818 258 c-1 -24 -2 -74 -2 -113 l-1 -70 73 -3 72 -3 0 31 c0 29 -2
30 -45 30 -33 0 -45 4 -45 15 0 10 10 15 30 15 25 0 30 4 30 25 0 15 -6 26
-15 26 -8 1 -21 2 -27 3 -7 0 -14 9 -16 19 -3 14 4 17 42 17 42 0 46 2 46 25
0 24 -2 25 -70 25 l-70 0 -2 -42z"/>
<path d="M2010 275 c0 -21 5 -25 30 -25 l30 0 0 -90 0 -90 30 0 30 0 0 90 0
90 30 0 c25 0 30 4 30 25 0 25 -1 25 -90 25 -89 0 -90 0 -90 -25z"/>
</g>
</svg>
